<svg width="782" height="509" viewBox="0 0 782 509" fill="none" xmlns="http://www.w3.org/2000/svg">
<path d="M780.469 416.012C780.821 416.897 781.311 417.887 782 418.595V509H-3.52465e-05C-0.045956 477.507 0.0611924 446.014 -3.52465e-05 414.535C12.123 401.321 74.0855 309.026 79.5807 304.936C93.3263 294.719 101.347 321.118 115.154 331.144C125.624 320.498 179.55 238.849 184.785 235.941C187.801 234.257 191.382 233.829 194.735 235.202C197.291 236.251 219.761 261.912 225.333 266.194C243.166 246.881 263.815 211.033 279.275 192.754C282.382 189.077 284.969 185.002 289.607 182.788H339.339C339.645 171.729 350.819 174.15 351.585 174.667C352.717 175.449 351.217 182.005 352.35 182.788C352.717 183.039 361.106 182.965 361.534 182.788C363.922 181.769 361.81 175.523 363.065 174.667C363.509 174.372 373.336 174.372 373.78 174.667C375.035 175.523 372.923 181.769 375.31 182.788C376.749 183.393 405.22 183.349 406.674 182.788C411.266 181.045 402.465 172.437 419.685 174.667C420.195 177.374 420.706 180.081 421.216 182.788C445.431 184.987 435.298 176.557 438.053 174.667C438.497 174.372 448.324 174.372 448.768 174.667C450.023 175.523 447.911 181.769 450.299 182.788C452.228 183.614 486.041 182.167 492.378 182.788C502.741 176.778 558.963 124.747 563.54 123.743C567.826 122.813 571.53 124.26 574.637 127.065C579.796 131.716 635.987 223.346 648.095 240.724C668.3 269.737 775.265 402.886 780.469 416.012Z" fill="#292929"/>
<path d="M449.151 100.12C449.457 95.4392 451.769 90.8474 449.534 86.0932H408.986C408.297 86.5656 408.572 94.2285 408.603 95.6902L403.246 97.905C397.108 87.3629 406.858 37.1333 409.368 32.5857C413.716 24.7309 427.232 23.904 427.737 22.9886C429.926 19.0612 410.44 9.81846 424.293 1.94885C435.283 -4.28188 441.666 6.09774 434.625 8.96211C439.523 20.9216 429.405 19.9618 430.033 22.2504C436.936 25.6758 447.33 25.7496 452.228 32.5857C459.33 42.5224 461.412 87.0972 456.82 93.8447C455.886 95.203 453.927 94.2581 453.376 94.952C451.309 97.5801 452.075 101.965 449.166 100.12H449.151Z" fill="#151B1D"/>
<path d="M449.151 100.12C447.605 124.142 448.523 148.076 449.151 172.083C448.37 173.796 438.467 173.796 437.671 172.083C436.492 169.514 433.676 124.629 432.313 115.992C431.563 111.223 430.706 103.9 428.869 105.287C426.221 114.013 422.609 169.189 420.833 172.083C419.869 173.663 410.195 173.501 409.736 173.191C406.521 170.991 410.302 118.074 409.353 97.1668C409.322 96.4581 408.603 96.3843 408.588 95.6903C408.557 94.2286 408.281 86.5657 408.97 86.0933H449.518C451.753 90.8475 449.442 95.4393 449.136 100.12H449.151Z" fill="#151B1D"/>
<path d="M409.368 97.1667C408.771 103.324 405.955 102.571 403.246 97.9049L408.603 95.6902C408.618 96.3841 409.338 96.458 409.368 97.1667Z" fill="#838383"/>
<g filter="url(#filter0_d_209_21)">
<path d="M339.41 99.7914C339.41 99.7913 339.41 99.7912 339.41 99.7912C339.252 99.0297 339.233 98.1551 339.232 97.2969C339.232 97.2025 339.232 97.1081 339.232 97.0141C339.232 96.6519 339.232 96.2956 339.221 95.9719C339.207 95.5675 339.174 95.173 339.088 94.8448C339.005 94.5295 338.842 94.1609 338.477 93.971C338.102 93.7754 337.684 93.8561 337.306 94.0271C336.921 94.2014 336.472 94.5146 335.944 94.9636C335.51 95.3333 335.007 95.8083 334.425 96.401C333.222 94.8044 331.662 92.5855 330.293 90.3075C328.774 87.7824 327.531 85.2509 327.219 83.4254C326.31 78.0407 327.286 67.4565 329.685 57.2876C330.882 52.2137 332.427 47.2705 334.252 43.1581C336.084 39.0301 338.172 35.8029 340.422 34.0911L340.423 34.091C345.507 30.2201 350.096 29.2474 353.365 28.5546C353.697 28.4842 354.016 28.4166 354.32 28.3493C355.142 28.1671 355.884 27.9803 356.499 27.7306C357.115 27.4804 357.65 27.1492 358.013 26.6496C358.755 25.63 358.611 24.1699 357.807 22.0715L357.806 22.0693C357.537 21.3782 357.027 20.766 356.44 20.2011C355.919 19.6993 355.302 19.2031 354.683 18.7048C354.604 18.641 354.524 18.5772 354.445 18.5134C353.027 17.3692 351.636 16.1869 350.915 14.6786C350.914 14.6693 350.908 14.6309 350.904 14.5456C350.897 14.4197 350.897 14.252 350.896 14.026C350.894 13.5821 350.892 12.9653 350.834 12.1951C350.722 10.7038 350.403 8.64835 349.487 6.10178C352.621 2.26781 357.226 1.31441 361.236 1.99709C363.278 2.34471 365.142 3.11425 366.548 4.12146C367.961 5.13375 368.865 6.34984 369.094 7.57665C369.246 8.39906 369.219 8.97858 369.091 9.39948C368.967 9.80791 368.739 10.102 368.414 10.3427C368.078 10.5924 367.635 10.786 367.085 10.9711C366.758 11.0814 366.425 11.1788 366.069 11.283C365.81 11.3588 365.54 11.438 365.25 11.5283C363.922 11.9424 362.427 12.5247 361.149 13.789C359.866 15.059 358.849 16.9695 358.377 19.9578C357.902 22.9534 358.588 24.9249 360.086 26.3217C361.531 27.6685 363.68 28.4228 365.955 29.1599C366.165 29.2279 366.376 29.2959 366.589 29.3643C371.066 30.8046 376.13 32.4338 379.094 37.9888C380.216 40.0973 381.303 43.8718 382.274 48.5572C383.243 53.2255 384.087 58.7454 384.744 64.3075C386.061 75.4542 386.614 86.686 385.928 91.5603C385.446 94.9789 384.742 96.9154 383.974 98.064C383.227 99.182 382.398 99.5872 381.533 99.8807C381.37 99.936 381.198 99.9885 381.021 100.043C380.283 100.269 379.45 100.524 378.741 101.131C377.831 101.91 377.149 103.212 376.746 105.572L376.746 105.573C376.296 108.232 375.983 113.623 375.728 120.21C375.53 125.339 375.365 131.218 375.199 137.144C375.152 138.843 375.104 140.546 375.055 142.237C374.837 149.825 374.6 157.154 374.269 162.737C374.103 165.531 373.914 167.877 373.694 169.598C373.583 170.46 373.466 171.152 373.343 171.661C373.282 171.916 373.221 172.113 373.164 172.258C373.135 172.33 373.109 172.384 373.088 172.422C373.084 172.428 373.081 172.434 373.077 172.439C373.071 172.441 373.064 172.444 373.056 172.446C372.987 172.47 372.881 172.497 372.738 172.526C372.453 172.583 372.059 172.639 371.585 172.686C370.64 172.781 369.413 172.84 368.175 172.827C366.933 172.814 365.703 172.729 364.743 172.542C364.261 172.449 363.87 172.333 363.585 172.201C363.364 172.098 363.249 172.003 363.192 171.935C362.306 149.467 361.415 126.998 360.518 104.529L360.509 104.293L360.32 104.15C360.009 103.916 359.641 103.959 359.395 104.03C359.134 104.106 358.875 104.25 358.653 104.403C358.427 104.558 358.213 104.739 358.043 104.914C357.888 105.071 357.716 105.275 357.639 105.477C357.501 105.835 357.374 106.395 357.252 107.097C357.129 107.81 357.005 108.705 356.881 109.75C356.632 111.842 356.379 114.558 356.123 117.681C355.641 123.569 355.148 130.922 354.653 138.298L354.562 139.645C354.037 147.47 353.511 155.22 352.994 161.188C352.736 164.172 352.481 166.703 352.23 168.571C352.105 169.506 351.982 170.267 351.862 170.832C351.802 171.115 351.744 171.341 351.689 171.512C351.632 171.693 351.589 171.774 351.574 171.795L351.573 171.796C351.485 171.922 351.308 172.068 351.008 172.212C350.714 172.354 350.337 172.478 349.894 172.578C349.008 172.778 347.914 172.872 346.823 172.862C345.731 172.852 344.67 172.738 343.848 172.534C343.436 172.432 343.103 172.312 342.861 172.182C342.61 172.048 342.515 171.934 342.487 171.875C342.433 171.755 342.357 171.423 342.286 170.815C342.218 170.234 342.159 169.465 342.108 168.528C342.007 166.655 341.942 164.137 341.9 161.165C341.821 155.549 341.825 148.332 341.83 140.821L341.831 139.507C341.836 131.53 341.835 123.311 341.73 116.408C341.625 109.52 341.416 103.902 340.997 101.152L340.996 101.15C340.946 100.824 340.728 100.587 340.55 100.436C340.362 100.276 340.137 100.144 339.939 100.042C339.762 99.9494 339.587 99.8707 339.457 99.8126C339.441 99.8052 339.425 99.7981 339.41 99.7914ZM377.239 105.657C376.45 110.314 376.078 123.606 375.699 137.156C375.225 154.106 374.739 171.459 373.412 172.821C372.892 173.353 363.524 173.884 362.697 172.083L377.239 105.657ZM360.019 104.549C359.529 104.18 358.258 105.258 358.105 105.657L360.019 104.549Z" fill="#151B1D" stroke="#1D1C1C"/>
<path d="M338.424 99.9609C337.989 100.365 337.678 100.434 337.472 100.411C337.212 100.383 336.92 100.193 336.585 99.7869C336.258 99.3899 335.957 98.8694 335.657 98.3286C335.623 98.2667 335.588 98.2041 335.554 98.1413C335.38 97.8249 335.202 97.5021 335.023 97.2203C335.642 96.5846 336.16 96.0934 336.592 95.7251C337.094 95.2979 337.46 95.0553 337.718 94.9382C337.911 94.851 337.994 94.8552 338.015 94.8589C338.027 94.8699 338.074 94.9227 338.121 95.1001C338.178 95.3154 338.208 95.6173 338.222 96.0067C338.232 96.311 338.232 96.6437 338.232 97.0035C338.232 97.0999 338.232 97.1982 338.232 97.2984C338.233 98.1349 338.248 99.0902 338.424 99.9609ZM338.021 94.8604C338.021 94.8604 338.02 94.8602 338.019 94.8597C338.02 94.8601 338.021 94.8603 338.021 94.8604Z" fill="#A3A3A3" stroke="#1D1C1C"/>
<mask id="path-7-inside-1_209_21" fill="white">
<path d="M354.661 52.1492C355.258 52.1492 355.258 56.5786 354.661 56.5786C354.064 56.5786 354.064 52.1492 354.661 52.1492Z"/>
</mask>
<path d="M354.661 52.1492C355.258 52.1492 355.258 56.5786 354.661 56.5786C354.064 56.5786 354.064 52.1492 354.661 52.1492Z" fill="#525252"/>
<path d="M354.661 53.1492C354.36 53.1492 354.155 53.0015 354.061 52.9082C354.016 52.8627 353.987 52.8229 353.973 52.8004C353.958 52.7771 353.951 52.7618 353.949 52.759C353.948 52.7552 353.956 52.7739 353.97 52.8244C353.984 52.8726 353.998 52.9368 354.013 53.0181C354.073 53.3546 354.109 53.8444 354.109 54.3639C354.109 54.8834 354.073 55.3732 354.013 55.7096C353.998 55.7909 353.984 55.8552 353.97 55.9034C353.956 55.9539 353.948 55.9725 353.949 55.9688C353.951 55.966 353.958 55.9507 353.973 55.9274C353.987 55.9049 354.016 55.865 354.061 55.8195C354.155 55.7263 354.36 55.5786 354.661 55.5786V57.5786C355.038 57.5786 355.312 57.3963 355.471 57.2382C355.621 57.0893 355.711 56.9242 355.765 56.8077C355.874 56.5719 355.939 56.3011 355.981 56.0634C356.07 55.5693 356.109 54.9517 356.109 54.3639C356.109 53.7761 356.07 53.1584 355.981 52.6644C355.939 52.4266 355.874 52.1558 355.765 51.92C355.711 51.8036 355.621 51.6384 355.471 51.4896C355.312 51.3314 355.038 51.1492 354.661 51.1492V53.1492ZM354.661 55.5786C354.963 55.5786 355.167 55.7263 355.261 55.8195C355.307 55.865 355.335 55.9049 355.35 55.9274C355.365 55.9507 355.372 55.966 355.373 55.9688C355.375 55.9725 355.366 55.9539 355.352 55.9034C355.339 55.8552 355.324 55.7909 355.31 55.7096C355.249 55.3732 355.214 54.8834 355.214 54.3639C355.214 53.8444 355.249 53.3546 355.31 53.0181C355.324 52.9368 355.339 52.8726 355.352 52.8244C355.366 52.7739 355.375 52.7552 355.373 52.759C355.372 52.7618 355.365 52.7771 355.35 52.8004C355.335 52.8229 355.307 52.8627 355.261 52.9082C355.167 53.0015 354.963 53.1492 354.661 53.1492V51.1492C354.285 51.1492 354.011 51.3314 353.852 51.4896C353.702 51.6384 353.612 51.8036 353.558 51.92C353.449 52.1558 353.384 52.4266 353.341 52.6644C353.253 53.1584 353.214 53.7761 353.214 54.3639C353.214 54.9517 353.253 55.5693 353.341 56.0634C353.384 56.3011 353.449 56.5719 353.558 56.8077C353.612 56.9242 353.702 57.0893 353.852 57.2382C354.011 57.3963 354.285 57.5786 354.661 57.5786V55.5786Z" fill="#1D1C1C" mask="url(#path-7-inside-1_209_21)"/>
</g>
<defs>
<filter id="filter0_d_209_21" x="322.384" y="1.29395" width="68.3401" height="180.069" filterUnits="userSpaceOnUse" color-interpolation-filters="sRGB">
<feFlood flood-opacity="0" result="BackgroundImageFix"/>
<feColorMatrix in="SourceAlpha" type="matrix" values="0 0 0 0 0 0 0 0 0 0 0 0 0 0 0 0 0 0 127 0" result="hardAlpha"/>
<feOffset dy="4"/>
<feGaussianBlur stdDeviation="2"/>
<feComposite in2="hardAlpha" operator="out"/>
<feColorMatrix type="matrix" values="0 0 0 0 0 0 0 0 0 0 0 0 0 0 0 0 0 0 0.25 0"/>
<feBlend mode="normal" in2="BackgroundImageFix" result="effect1_dropShadow_209_21"/>
<feBlend mode="normal" in="SourceGraphic" in2="effect1_dropShadow_209_21" result="shape"/>
</filter>
</defs>
</svg>
