<svg width="1440" height="1024" viewBox="0 0 1440 1024" fill="none" xmlns="http://www.w3.org/2000/svg">
<g clip-path="url(#clip0_197_3)">
<rect width="1440" height="1024" fill="black"/>
<path d="M179.5 374L180.061 376.418H181.878L180.408 377.913L180.969 380.332L179.5 378.837L178.031 380.332L178.592 377.913L177.122 376.418H178.939L179.5 374Z" fill="white"/>
<path d="M340.5 377L341.061 379.418H342.878L341.408 380.913L341.969 383.332L340.5 381.837L339.031 383.332L339.592 380.913L338.122 379.418H339.939L340.5 377Z" fill="white"/>
<path d="M620.5 335L621.061 337.418H622.878L621.408 338.913L621.969 341.332L620.5 339.837L619.031 341.332L619.592 338.913L618.122 337.418H619.939L620.5 335Z" fill="white"/>
<path d="M1146.5 435L1147.06 437.418H1148.88L1147.41 438.913L1147.97 441.332L1146.5 439.837L1145.03 441.332L1145.59 438.913L1144.12 437.418H1145.94L1146.5 435Z" fill="white"/>
<path d="M989.5 273L990.061 275.418H991.878L990.408 276.913L990.969 279.332L989.5 277.837L988.031 279.332L988.592 276.913L987.122 275.418H988.939L989.5 273Z" fill="white"/>
<path d="M1031.5 188L1032.06 190.418H1033.88L1032.41 191.913L1032.97 194.332L1031.5 192.837L1030.03 194.332L1030.59 191.913L1029.12 190.418H1030.94L1031.5 188Z" fill="white"/>
<path d="M1073.5 135L1074.06 137.418H1075.88L1074.41 138.913L1074.97 141.332L1073.5 139.837L1072.03 141.332L1072.59 138.913L1071.12 137.418H1072.94L1073.5 135Z" fill="white"/>
<path d="M1385.5 56L1386.06 58.4184H1387.88L1386.41 59.9131L1386.97 62.3316L1385.5 60.8369L1384.03 62.3316L1384.59 59.9131L1383.12 58.4184H1384.94L1385.5 56Z" fill="white"/>
<path d="M832.5 145L833.061 147.418H834.878L833.408 148.913L833.969 151.332L832.5 149.837L831.031 151.332L831.592 148.913L830.122 147.418H831.939L832.5 145Z" fill="white"/>
<path d="M869.5 58L870.061 60.4184H871.878L870.408 61.9131L870.969 64.3316L869.5 62.8369L868.031 64.3316L868.592 61.9131L867.122 60.4184H868.939L869.5 58Z" fill="white"/>
<path d="M108.5 104L109.061 106.418H110.878L109.408 107.913L109.969 110.332L108.5 108.837L107.031 110.332L107.592 107.913L106.122 106.418H107.939L108.5 104Z" fill="white"/>
<path d="M440.5 280L441.061 282.418H442.878L441.408 283.913L441.969 286.332L440.5 284.837L439.031 286.332L439.592 283.913L438.122 282.418H439.939L440.5 280Z" fill="white"/>
<path d="M309.5 111L310.061 113.418H311.878L310.408 114.913L310.969 117.332L309.5 115.837L308.031 117.332L308.592 114.913L307.122 113.418H308.939L309.5 111Z" fill="white"/>
<path d="M602.5 214L603.061 216.418H604.878L603.408 217.913L603.969 220.332L602.5 218.837L601.031 220.332L601.592 217.913L600.122 216.418H601.939L602.5 214Z" fill="white"/>
<path d="M1210.93 150.525C1207.25 162.107 1213.71 174.759 1225.83 175.661C1230.17 175.985 1234.53 176.006 1238.87 175.72C1250.5 174.956 1261.79 172.006 1272.08 167.039C1282.38 162.073 1291.48 155.187 1298.87 146.774C1306.25 138.362 1311.78 128.588 1315.14 118.011C1318.49 107.434 1319.61 96.26 1318.42 85.1279C1317.23 73.9958 1313.76 63.1233 1308.21 53.1312C1302.67 43.1391 1295.14 34.2231 1286.08 26.8922C1282.69 24.1565 1279.12 21.6615 1275.39 19.4239C1264.96 13.1771 1252.4 19.7943 1248.72 31.3759L1229.82 90.9507L1210.93 150.525Z" fill="#D9D9D9"/>
<path d="M1269.82 112.031L1267.35 111.835L1266.8 113.566L1265.82 111.713L1263.34 111.517L1265.21 110.568L1264.23 108.716L1266.37 109.982L1268.24 109.033L1267.69 110.765L1269.82 112.031Z" fill="white"/>
<ellipse cx="1200.28" cy="81.5778" rx="100.5" ry="98.5" transform="rotate(107.599 1200.28 81.5778)" fill="black"/>
<ellipse cx="1283.5" cy="146" rx="6.5" ry="10" fill="#4F4F4F" fill-opacity="0.2"/>
<ellipse cx="1301.5" cy="118" rx="6.5" ry="10" fill="#4F4F4F" fill-opacity="0.2"/>
<ellipse cx="1307.5" cy="74" rx="6.5" ry="10" fill="#4F4F4F" fill-opacity="0.2"/>
</g>
<defs>
<clipPath id="clip0_197_3">
<rect width="1440" height="1024" fill="white"/>
</clipPath>
</defs>
</svg>
