<svg width="142" height="127" viewBox="0 0 142 127" fill="none" xmlns="http://www.w3.org/2000/svg">
<path d="M121 67C121 89.9198 93.9132 108.5 60.5 108.5C27.0868 108.5 0 89.9198 0 67C0 44.0802 27.0868 25.5 60.5 25.5C93.9132 25.5 121 44.0802 121 67Z" fill="#9FC3E3"/>
<path d="M141.5 76C141.5 103.89 118.443 126.5 90 126.5C61.5573 126.5 38.5 103.89 38.5 76C38.5 48.1096 61.5573 25.5 90 25.5C118.443 25.5 141.5 48.1096 141.5 76Z" fill="#9FC3E3"/>
<path d="M129 36.5C129 56.6584 109.077 73 84.5 73C59.9233 73 40 56.6584 40 36.5C40 16.3416 59.9233 0 84.5 0C109.077 0 129 16.3416 129 36.5Z" fill="#9FC3E3"/>
</svg>
