<svg width="142" height="127" viewBox="0 0 142 127" fill="none" xmlns="http://www.w3.org/2000/svg">
<path d="M121.5 67.5C121.5 90.4198 94.4132 109 61 109C27.5868 109 0.5 90.4198 0.5 67.5C0.5 44.5802 27.5868 26 61 26C94.4132 26 121.5 44.5802 121.5 67.5Z" fill="#1D1C1C"/>
<path d="M142 76.5C142 104.39 118.943 127 90.5 127C62.0573 127 39 104.39 39 76.5C39 48.6096 62.0573 26 90.5 26C118.943 26 142 48.6096 142 76.5Z" fill="#1D1C1C"/>
<path d="M129.5 37C129.5 57.1584 109.577 73.5 85 73.5C60.4233 73.5 40.5 57.1584 40.5 37C40.5 16.8416 60.4233 0.5 85 0.5C109.577 0.5 129.5 16.8416 129.5 37Z" fill="#1D1C1C"/>
</svg>
