<svg width="155" height="110" viewBox="0 0 155 110" fill="none" xmlns="http://www.w3.org/2000/svg">
<path d="M121 68.5C121 91.4198 93.9132 110 60.5 110C27.0868 110 0 91.4198 0 68.5C0 45.5802 27.0868 27 60.5 27C93.9132 27 121 45.5802 121 68.5Z" fill="#9FC3E3"/>
<path d="M130 50.5C130 78.3904 106.943 101 78.5 101C50.0573 101 27 78.3904 27 50.5C27 22.6096 50.0573 0 78.5 0C106.943 0 130 22.6096 130 50.5Z" fill="#9FC3E3"/>
<path d="M155 73.5C155 93.6584 135.077 110 110.5 110C85.9233 110 66 93.6584 66 73.5C66 53.3416 85.9233 37 110.5 37C135.077 37 155 53.3416 155 73.5Z" fill="#9FC3E3"/>
</svg>
