<svg width="1440" height="337" viewBox="0 0 1440 337" fill="none" xmlns="http://www.w3.org/2000/svg">
<g clip-path="url(#clip0_199_102)">
<mask id="mask0_199_102" style="mask-type:luminance" maskUnits="userSpaceOnUse" x="-88" y="0" width="1025" height="363">
<path d="M936.43 0H-88V362.26H936.43V0Z" fill="white"/>
</mask>
<g mask="url(#mask0_199_102)">
<path d="M423.68 172.35C426.43 233.49 423.78 295.56 424.66 356.99C424.61 360.9 421.91 361.61 417.84 361.62C171.39 359.78 159.34 365.2 -86.52 359.74C-87.07 358.93 -87.18 358.03 -87.23 356.99C-87.27 332.59 -87.2 308.16 -87.23 283.75C-87.25 282.07 -87.1 280.23 -86.3 278.8C-41.93 244.22 -0.519947 205.56 37.94 164.24C41.71 160.37 45.5 156.47 49.34 152.69C51.67 150.34 53.74 150.69 55.89 152.96C70.53 167.49 85.03 182.18 99.86 196.53C131.36 227.36 165.51 255.19 199.44 283.24C200.69 284.3 202.32 285.42 203.83 285.3C204.84 285.27 205.87 284.81 206.91 284.14C228.6 269 249.11 252.11 269.34 235.01C304.4 205.63 330.02 180.2 364.11 145.6C368.99 141 373.1 135.8 378.17 131.59C380.11 130.37 382.69 132.03 384.29 133.61C400.8 149.37 403.54 152.03 419.74 167.52C421.18 168.87 422.72 170.51 423.58 172.15L423.68 172.34V172.35Z" fill="#022859"/>
<path d="M242.4 112.29C242.73 113.56 241.56 114.82 240.54 115.7C206.68 146.32 171.75 175.88 134.62 202.46C129.97 205.76 125.27 209.04 120.54 212.2C119.59 212.81 118.66 213.26 117.75 213.34C116.19 213.55 114.64 212.38 113.48 211.25C93.8899 192.83 75.0699 173.61 56.0199 154.62C55.1199 153.7 53.8699 152.55 52.7299 152.46C51.4399 152.26 50.0999 153.37 49.1499 154.33C35.9499 167.49 23.3399 181.22 10.2399 194.49C9.29992 195.45 8.01993 196.52 6.75993 196.47C5.81993 196.47 4.84993 195.95 3.86993 195.19C-26.9301 168.83 -58.4101 142.56 -87.1101 113.99C-87.8501 112.55 -88.0001 110.77 -87.9901 109.1C-87.9901 80.66 -88.0201 52.18 -87.9901 23.77C-87.9601 21.06 -86.8301 20.64 -84.0801 22.76C-25.8601 70.43 -20.0001 75.53 38.0799 123.09C41.1699 125.6 44.2499 125.24 47.1299 122.81C95.5999 83.47 98.8799 80.77 146.8 41.84C148.34 40.56 150.33 39.13 152.19 39.1C154.12 38.95 156.19 40.32 157.77 41.65C196.54 73.44 199.93 76.22 238.57 107.9C239.97 109.02 242.07 110.79 242.36 112.14L242.4 112.3V112.29Z" fill="#D0E9FB"/>
<path d="M6.8299 196.64C6.8499 197.48 6.28988 198.34 5.44988 199.24C-22.5502 227.02 -51.5602 253.8 -83.5202 277.05C-84.4402 277.75 -86.2802 279.05 -87.0002 278.35C-88.5602 224.18 -87.7602 168.74 -87.2402 114.43C-86.6802 113.38 -84.8402 115.02 -84.0402 115.77C-54.7802 142.42 -25.2001 168.8 5.21989 194.05C6.13989 194.86 6.7699 195.67 6.8299 196.51V196.64Z" fill="#54A9E4"/>
<path d="M424.2 172.96C423.15 172.9 421.45 171.26 420.44 170.31C403.87 154.48 401.1 151.82 384.42 135.89C383.17 134.7 381.34 133.2 379.79 133.18C378.64 133.11 377.63 133.76 376.81 134.53C374.81 136.51 372.85 138.6 370.87 140.62C369.36 142.19 367.85 143.85 366.26 143.87C364.95 143.9 363.98 143.21 362.91 142.36C345.4 127.45 328.83 111.35 311.71 96C309.05 93.89 309.25 91.66 312.14 89.26C363.34 47.85 369.52 42.96 420.65 1.76003C423.13 -0.139961 425.16 -1.20997 425.25 2.34003C425.32 58.49 425.31 114.64 425.25 170.79C425.21 172.06 424.96 172.92 424.3 172.96H424.2Z" fill="#D0E9FB"/>
<path d="M302.23 85.4C324.09 103.1 343.86 123.37 365.37 141.51C367.86 143.72 366.1 146.18 364.03 148.07C332.06 180.05 311.72 200.76 276.23 230.82C273.61 233.13 270.96 232.82 268.55 230.54C241.32 208.61 210.03 192.16 183.56 169.24C182.54 168.38 181.14 167.05 181.16 165.91C181.03 164.72 182.47 163.39 183.55 162.55C203.98 146.02 223.85 128.69 243.39 111.15C247.1 107.81 250.75 104.47 254.43 101.09C264.14 92.18 273.13 82.35 283.25 74.03C284.09 73.34 285.15 72.63 286.15 72.52C287.43 72.35 288.61 73.1 289.57 73.94C293.65 77.69 297.88 81.69 302.08 85.28L302.23 85.41V85.4Z" fill="#54A9E4"/>
<path d="M272.76 232.72C272.79 233.79 271.44 235.01 270.47 235.8C250.12 252.91 229.46 269.75 207.65 284.97C206.4 285.87 204.8 286.77 203.36 286.53C174.03 265.12 146.45 240.27 118.99 216.21C116.19 213.87 115.92 212.09 119.31 210.07C139.73 196.53 159.15 181.55 178.41 166.43C180.34 165.12 182.11 165.44 183.86 166.92C210.71 190.42 242.69 207.16 270.42 229.57C271.4 230.34 272.77 231.55 272.76 232.61V232.74V232.72Z" fill="#187ECE"/>
<path d="M423.908 172.35C421.158 233.49 423.808 295.56 422.928 356.99C422.978 360.9 425.678 361.61 429.748 361.62C676.198 359.78 688.248 365.2 934.108 359.74C934.658 358.93 934.768 358.03 934.818 356.99C934.858 332.59 934.788 308.16 934.818 283.75C934.838 282.07 934.688 280.23 933.888 278.8C889.518 244.22 848.108 205.56 809.648 164.24C805.878 160.37 802.088 156.47 798.248 152.69C795.918 150.34 793.848 150.69 791.698 152.96C777.058 167.49 762.558 182.18 747.728 196.53C716.228 227.36 682.078 255.19 648.148 283.24C646.898 284.3 645.268 285.42 643.758 285.3C642.748 285.27 641.718 284.81 640.678 284.14C618.988 269 598.478 252.11 578.248 235.01C543.188 205.63 517.568 180.2 483.478 145.6C478.598 141 474.488 135.8 469.418 131.59C467.478 130.37 464.898 132.03 463.298 133.61C446.788 149.37 444.048 152.03 427.848 167.52C426.408 168.87 424.868 170.51 424.008 172.15L423.908 172.34V172.35Z" fill="#022859"/>
<path d="M605.188 112.29C604.858 113.56 606.028 114.82 607.048 115.7C640.908 146.32 675.838 175.88 712.968 202.46C717.618 205.76 722.318 209.04 727.048 212.2C727.998 212.81 728.928 213.26 729.838 213.34C731.398 213.55 732.948 212.38 734.108 211.25C753.698 192.83 772.518 173.61 791.568 154.62C792.468 153.7 793.718 152.55 794.858 152.46C796.148 152.26 797.488 153.37 798.438 154.33C811.638 167.49 824.248 181.22 837.348 194.49C838.288 195.45 839.568 196.52 840.828 196.47C841.768 196.47 842.738 195.95 843.718 195.19C874.528 168.83 905.998 142.56 934.698 113.98C935.448 112.54 935.588 110.76 935.578 109.09C935.578 80.65 935.608 52.17 935.578 23.76C935.548 21.05 934.418 20.63 931.668 22.75C873.448 70.42 867.588 75.52 809.508 123.08C806.418 125.59 803.338 125.23 800.458 122.8C751.988 83.46 748.708 80.76 700.788 41.83C699.248 40.55 697.258 39.12 695.398 39.09C693.468 38.94 691.398 40.31 689.818 41.64C651.048 73.43 647.658 76.21 609.018 107.89C607.618 109.01 605.518 110.78 605.228 112.13L605.188 112.29Z" fill="#D0E9FB"/>
<path d="M840.768 196.64C840.748 197.48 841.308 198.34 842.148 199.24C870.148 227.02 899.158 253.8 931.118 277.05C932.038 277.75 933.878 279.05 934.598 278.35C936.158 224.18 935.358 168.74 934.838 114.43C934.278 113.38 932.438 115.02 931.638 115.77C902.378 142.42 872.798 168.8 842.378 194.05C841.458 194.86 840.828 195.67 840.768 196.51V196.64Z" fill="#54A9E4"/>
<path d="M423.398 172.96C424.448 172.9 426.148 171.26 427.158 170.31C443.728 154.48 446.498 151.82 463.178 135.89C464.428 134.7 466.258 133.2 467.808 133.18C468.958 133.11 469.968 133.76 470.788 134.53C472.788 136.51 474.748 138.6 476.728 140.62C478.238 142.19 479.748 143.85 481.338 143.87C482.648 143.9 483.618 143.21 484.688 142.36C502.198 127.45 518.768 111.35 535.888 96C538.548 93.89 538.348 91.66 535.458 89.26C484.258 47.85 478.078 42.96 426.948 1.76003C424.468 -0.139961 422.438 -1.20997 422.348 2.34003C422.278 58.49 422.288 114.64 422.348 170.79C422.388 172.06 422.638 172.92 423.298 172.96H423.398Z" fill="#D0E9FB"/>
<path d="M545.358 85.4C523.498 103.1 503.728 123.37 482.218 141.51C479.728 143.72 481.488 146.18 483.558 148.07C515.528 180.05 535.868 200.76 571.358 230.82C573.978 233.13 576.628 232.82 579.038 230.54C606.268 208.61 637.558 192.16 664.028 169.24C665.048 168.38 666.448 167.05 666.428 165.91C666.558 164.72 665.118 163.39 664.038 162.55C643.608 146.02 623.738 128.69 604.198 111.15C600.488 107.81 596.838 104.47 593.158 101.09C583.448 92.18 574.458 82.35 564.338 74.03C563.498 73.34 562.438 72.63 561.438 72.52C560.158 72.35 558.978 73.1 558.018 73.94C553.938 77.69 549.708 81.69 545.508 85.28L545.358 85.41V85.4Z" fill="#54A9E4"/>
<path d="M574.838 232.72C574.808 233.79 576.158 235.01 577.128 235.8C597.478 252.91 618.138 269.75 639.948 284.97C641.198 285.87 642.798 286.77 644.238 286.53C673.568 265.12 701.148 240.27 728.608 216.21C731.408 213.87 731.678 212.09 728.288 210.07C707.868 196.53 688.448 181.55 669.188 166.43C667.258 165.12 665.488 165.44 663.738 166.92C636.888 190.42 604.908 207.16 577.178 229.57C576.198 230.34 574.828 231.55 574.838 232.61V232.74V232.72Z" fill="#187ECE"/>
</g>
<mask id="mask1_199_102" style="mask-type:luminance" maskUnits="userSpaceOnUse" x="934" y="0" width="1025" height="363">
<path d="M1958.43 0H934V362.26H1958.43V0Z" fill="white"/>
</mask>
<g mask="url(#mask1_199_102)">
<path d="M1445.68 172.35C1448.43 233.49 1445.78 295.56 1446.66 356.99C1446.61 360.9 1443.91 361.61 1439.84 361.62C1193.39 359.78 1181.34 365.2 935.48 359.74C934.93 358.93 934.82 358.03 934.77 356.99C934.73 332.59 934.8 308.16 934.77 283.75C934.75 282.07 934.9 280.23 935.7 278.8C980.07 244.22 1021.48 205.56 1059.94 164.24C1063.71 160.37 1067.5 156.47 1071.34 152.69C1073.67 150.34 1075.74 150.69 1077.89 152.96C1092.53 167.49 1107.03 182.18 1121.86 196.53C1153.36 227.36 1187.51 255.19 1221.44 283.24C1222.69 284.3 1224.32 285.42 1225.83 285.3C1226.84 285.27 1227.87 284.81 1228.91 284.14C1250.6 269 1271.11 252.11 1291.34 235.01C1326.4 205.63 1352.02 180.2 1386.11 145.6C1390.99 141 1395.1 135.8 1400.17 131.59C1402.11 130.37 1404.69 132.03 1406.29 133.61C1422.8 149.37 1425.54 152.03 1441.74 167.52C1443.18 168.87 1444.72 170.51 1445.58 172.15L1445.68 172.34V172.35Z" fill="#022859"/>
<path d="M1264.4 112.29C1264.73 113.56 1263.56 114.82 1262.54 115.7C1228.68 146.32 1193.75 175.88 1156.62 202.46C1151.97 205.76 1147.27 209.04 1142.54 212.2C1141.59 212.81 1140.66 213.26 1139.75 213.34C1138.19 213.55 1136.64 212.38 1135.48 211.25C1115.89 192.83 1097.07 173.61 1078.02 154.62C1077.12 153.7 1075.87 152.55 1074.73 152.46C1073.44 152.26 1072.1 153.37 1071.15 154.33C1057.95 167.49 1045.34 181.22 1032.24 194.49C1031.3 195.45 1030.02 196.52 1028.76 196.47C1027.82 196.47 1026.85 195.95 1025.87 195.19C995.07 168.83 963.59 142.56 934.89 113.99C934.15 112.55 934 110.77 934.01 109.1C934.01 80.66 933.98 52.18 934.01 23.77C934.04 21.06 935.17 20.64 937.92 22.76C996.14 70.43 1002 75.53 1060.08 123.09C1063.17 125.6 1066.25 125.24 1069.13 122.81C1117.6 83.47 1120.88 80.77 1168.8 41.84C1170.34 40.56 1172.33 39.13 1174.19 39.1C1176.12 38.95 1178.19 40.32 1179.77 41.65C1218.54 73.44 1221.93 76.22 1260.57 107.9C1261.97 109.02 1264.07 110.79 1264.36 112.14L1264.4 112.3V112.29Z" fill="#D0E9FB"/>
<path d="M1028.83 196.64C1028.85 197.48 1028.29 198.34 1027.45 199.24C999.45 227.02 970.44 253.8 938.48 277.05C937.56 277.75 935.72 279.05 935 278.35C933.44 224.18 934.24 168.74 934.76 114.43C935.32 113.38 937.16 115.02 937.96 115.77C967.22 142.42 996.8 168.8 1027.22 194.05C1028.14 194.86 1028.77 195.67 1028.83 196.51V196.64Z" fill="#54A9E4"/>
<path d="M1446.2 172.96C1445.15 172.9 1443.45 171.26 1442.44 170.31C1425.87 154.48 1423.1 151.82 1406.42 135.89C1405.17 134.7 1403.34 133.2 1401.79 133.18C1400.64 133.11 1399.63 133.76 1398.81 134.53C1396.81 136.51 1394.85 138.6 1392.87 140.62C1391.36 142.19 1389.85 143.85 1388.26 143.87C1386.95 143.9 1385.98 143.21 1384.91 142.36C1367.4 127.45 1350.83 111.35 1333.71 96C1331.05 93.89 1331.25 91.66 1334.14 89.26C1385.34 47.85 1391.52 42.96 1442.65 1.76003C1445.13 -0.139961 1447.16 -1.20997 1447.25 2.34003C1447.32 58.49 1447.31 114.64 1447.25 170.79C1447.21 172.06 1446.96 172.92 1446.3 172.96H1446.2Z" fill="#D0E9FB"/>
<path d="M1324.23 85.4C1346.09 103.1 1365.86 123.37 1387.37 141.51C1389.86 143.72 1388.1 146.18 1386.03 148.07C1354.06 180.05 1333.72 200.76 1298.23 230.82C1295.61 233.13 1292.96 232.82 1290.55 230.54C1263.32 208.61 1232.03 192.16 1205.56 169.24C1204.54 168.38 1203.14 167.05 1203.16 165.91C1203.03 164.72 1204.47 163.39 1205.55 162.55C1225.98 146.02 1245.85 128.69 1265.39 111.15C1269.1 107.81 1272.75 104.47 1276.43 101.09C1286.14 92.18 1295.13 82.35 1305.25 74.03C1306.09 73.34 1307.15 72.63 1308.15 72.52C1309.43 72.35 1310.61 73.1 1311.57 73.94C1315.65 77.69 1319.88 81.69 1324.08 85.28L1324.23 85.41V85.4Z" fill="#54A9E4"/>
<path d="M1294.76 232.72C1294.79 233.79 1293.44 235.01 1292.47 235.8C1272.12 252.91 1251.46 269.75 1229.65 284.97C1228.4 285.87 1226.8 286.77 1225.36 286.53C1196.03 265.12 1168.45 240.27 1140.99 216.21C1138.19 213.87 1137.92 212.09 1141.31 210.07C1161.73 196.53 1181.15 181.55 1200.41 166.43C1202.34 165.12 1204.11 165.44 1205.86 166.92C1232.71 190.42 1264.69 207.16 1292.42 229.57C1293.4 230.34 1294.77 231.55 1294.76 232.61V232.74V232.72Z" fill="#187ECE"/>
</g>
</g>
<defs>
<clipPath id="clip0_199_102">
<rect width="1440" height="337" fill="white"/>
</clipPath>
</defs>
</svg>
