<svg width="175" height="127" viewBox="0 0 175 127" fill="none" xmlns="http://www.w3.org/2000/svg">
<path d="M136.613 78.8203C136.613 105.193 106.031 126.573 68.3065 126.573C30.5818 126.573 0 105.193 0 78.8203C0 52.4473 30.5818 31.0678 68.3065 31.0678C106.031 31.0678 136.613 52.4473 136.613 78.8203Z" fill="#9FC3E3"/>
<path d="M146.774 58.1084C146.774 90.2008 120.742 116.217 88.629 116.217C56.5163 116.217 30.4839 90.2008 30.4839 58.1084C30.4839 26.016 56.5163 0 88.629 0C120.742 0 146.774 26.016 146.774 58.1084Z" fill="#9FC3E3"/>
<path d="M175 84.5736C175 107.769 152.506 126.573 124.758 126.573C97.0102 126.573 74.5161 107.769 74.5161 84.5736C74.5161 61.3781 97.0102 42.5745 124.758 42.5745C152.506 42.5745 175 61.3781 175 84.5736Z" fill="#9FC3E3"/>
</svg>
